<svg width="24" height="24" viewBox="0 0 24 24" fill="none" xmlns="http://www.w3.org/2000/svg">
<path d="M11.9703 19.9896C7.56273 19.9896 4.37446 16.6338 2.86529 14.639C1.67593 13.0597 1.7159 10.8883 2.96522 9.35065C4.94414 6.90909 8.13241 4 12.0203 4C15.9082 4 19.0964 6.91948 21.0654 9.38182C22.2947 10.9195 22.3147 13.1636 21.1054 14.7117C19.2264 17.1221 16.1181 20 11.9803 20L11.9703 19.9896ZM12.0203 6.07792C8.90199 6.07792 6.20346 8.59221 4.49439 10.6909C3.86473 11.4701 3.84474 12.561 4.44441 13.361C5.73371 15.0649 8.42225 17.9221 11.9803 17.9221C15.3385 17.9221 17.9571 15.4701 19.5562 13.4026C20.1759 12.613 20.1659 11.5013 19.5262 10.7117C18.137 8.98701 15.3285 6.07792 12.0203 6.07792Z" fill="#6E7686"/>
<path d="M12.0103 16.1455C9.8015 16.1455 8.01247 14.2857 8.01247 11.9896C8.01247 9.69351 9.8015 7.83377 12.0103 7.83377C14.2191 7.83377 16.0081 9.69351 16.0081 11.9896C16.0081 14.2857 14.2191 16.1455 12.0103 16.1455ZM12.0103 9.91169C10.9109 9.91169 10.0114 10.8468 10.0114 11.9896C10.0114 13.1325 10.9109 14.0675 12.0103 14.0675C13.1097 14.0675 14.0092 13.1325 14.0092 11.9896C14.0092 10.8468 13.1097 9.91169 12.0103 9.91169Z" fill="#6E7686"/>
</svg>
