<svg width="24" height="24" viewBox="0 0 24 24" fill="none" xmlns="http://www.w3.org/2000/svg">
<path d="M21.0554 9.4825C19.0864 7.1225 15.9282 4.3025 12.0103 4.3025C11.2607 4.3025 10.4911 4.4125 9.73154 4.6225C9.20183 4.7725 8.89199 5.3225 9.04191 5.8525C9.19183 6.3825 9.74154 6.6925 10.2713 6.5425C10.8509 6.3825 11.4406 6.2925 12.0103 6.2925C15.3085 6.2925 18.127 9.0825 19.5162 10.7525C20.1459 11.5125 20.1559 12.5825 19.5462 13.3425C19.3063 13.6425 19.0365 13.9525 18.7366 14.2725C18.3568 14.6725 18.3768 15.3125 18.7766 15.6825C18.9665 15.8625 19.2164 15.9525 19.4662 15.9525C19.7361 15.9525 19.9959 15.8425 20.1958 15.6425C20.5357 15.2825 20.8355 14.9325 21.1053 14.6025C22.3147 13.1125 22.2947 10.9525 21.0654 9.4725L21.0554 9.4825Z" fill="#A7B4CC"/>
<path d="M8.05245 6.6425C8.02247 6.5625 8.00248 6.4825 7.9525 6.4025C7.82257 6.2125 7.64267 6.1025 7.45278 6.0325L5.71373 4.2925C5.32395 3.9025 4.68429 3.9025 4.3045 4.2925C3.91471 4.6825 3.91471 5.3125 4.3045 5.7025L5.52383 6.9225C4.64431 7.6325 3.79478 8.4725 2.96523 9.4525C1.71591 10.9325 1.67593 13.0225 2.86528 14.5425C4.37446 16.4625 7.56272 19.6925 11.9703 19.6925C13.6394 19.6925 15.2785 19.2125 16.8676 18.3025L18.2669 19.7125C18.4668 19.9125 18.7166 20.0025 18.9765 20.0025C19.2364 20.0025 19.4862 19.9025 19.6861 19.7125C20.0759 19.3225 20.0759 18.6925 19.6861 18.3025L8.05245 6.6425ZM10.0714 11.5025L12.5 13.9325C12.3401 13.9725 12.1702 14.0025 12.0003 14.0025C10.9009 14.0025 10.0014 13.1025 10.0014 12.0025C10.0014 11.8325 10.0314 11.6625 10.0714 11.5025ZM11.9603 17.7025C8.40227 17.7025 5.71372 14.9525 4.42443 13.3125C3.82475 12.5525 3.84475 11.4925 4.4744 10.7525C5.26397 9.8125 6.08352 9.0125 6.92307 8.3625L8.56217 10.0025C8.20237 10.6125 7.99249 11.2925 7.99249 12.0125C7.99249 14.2225 9.78152 16.0125 11.9903 16.0125C12.6999 16.0125 13.3895 15.8025 13.9892 15.4525L15.3785 16.8525C14.2491 17.4225 13.0997 17.7125 11.9503 17.7125L11.9603 17.7025Z" fill="#A7B4CC"/>
</svg>
