<svg width="32" height="32" viewBox="0 0 32 32" fill="none" xmlns="http://www.w3.org/2000/svg">
<path d="M13.3334 17.3333H4.00002C3.6464 17.3333 3.30726 17.4738 3.05721 17.7238C2.80716 17.9739 2.66669 18.313 2.66669 18.6667V28C2.66669 28.3536 2.80716 28.6928 3.05721 28.9428C3.30726 29.1929 3.6464 29.3333 4.00002 29.3333H13.3334C13.687 29.3333 14.0261 29.1929 14.2762 28.9428C14.5262 28.6928 14.6667 28.3536 14.6667 28V18.6667C14.6667 18.313 14.5262 17.9739 14.2762 17.7238C14.0261 17.4738 13.687 17.3333 13.3334 17.3333ZM12 26.6667H5.33335V20H12V26.6667ZM28 2.66666H18.6667C18.3131 2.66666 17.9739 2.80713 17.7239 3.05718C17.4738 3.30723 17.3334 3.64637 17.3334 3.99999V13.3333C17.3334 13.6869 17.4738 14.0261 17.7239 14.2761C17.9739 14.5262 18.3131 14.6667 18.6667 14.6667H28C28.3536 14.6667 28.6928 14.5262 28.9428 14.2761C29.1929 14.0261 29.3334 13.6869 29.3334 13.3333V3.99999C29.3334 3.64637 29.1929 3.30723 28.9428 3.05718C28.6928 2.80713 28.3536 2.66666 28 2.66666ZM26.6667 12H20V5.33332H26.6667V12ZM28 17.3333H18.6667C18.3131 17.3333 17.9739 17.4738 17.7239 17.7238C17.4738 17.9739 17.3334 18.313 17.3334 18.6667V28C17.3334 28.3536 17.4738 28.6928 17.7239 28.9428C17.9739 29.1929 18.3131 29.3333 18.6667 29.3333H28C28.3536 29.3333 28.6928 29.1929 28.9428 28.9428C29.1929 28.6928 29.3334 28.3536 29.3334 28V18.6667C29.3334 18.313 29.1929 17.9739 28.9428 17.7238C28.6928 17.4738 28.3536 17.3333 28 17.3333ZM26.6667 26.6667H20V20H26.6667V26.6667ZM13.3334 2.66666H4.00002C3.6464 2.66666 3.30726 2.80713 3.05721 3.05718C2.80716 3.30723 2.66669 3.64637 2.66669 3.99999V13.3333C2.66669 13.6869 2.80716 14.0261 3.05721 14.2761C3.30726 14.5262 3.6464 14.6667 4.00002 14.6667H13.3334C13.687 14.6667 14.0261 14.5262 14.2762 14.2761C14.5262 14.0261 14.6667 13.6869 14.6667 13.3333V3.99999C14.6667 3.64637 14.5262 3.30723 14.2762 3.05718C14.0261 2.80713 13.687 2.66666 13.3334 2.66666ZM12 12H5.33335V5.33332H12V12Z" fill="#6E7686"/>
</svg>
