<svg width="80" height="80" viewBox="0 0 80 80" fill="none" xmlns="http://www.w3.org/2000/svg">
<g filter="url(#filter0_d_1_227)">
<rect x="24" y="16" width="32" height="32" rx="2" fill="white"/>
<rect x="22" y="14" width="36" height="36" rx="4" stroke="white" stroke-width="4"/>
<path d="M32.3866 28.9467C32.5106 29.0716 32.6581 29.1708 32.8205 29.2385C32.983 29.3062 33.1573 29.3411 33.3333 29.3411C33.5093 29.3411 33.6836 29.3062 33.8461 29.2385C34.0086 29.1708 34.156 29.0716 34.28 28.9467C34.405 28.8227 34.5041 28.6752 34.5718 28.5128C34.6395 28.3503 34.6744 28.176 34.6744 28C34.6744 27.824 34.6395 27.6497 34.5718 27.4872C34.5041 27.3248 34.405 27.1773 34.28 27.0533L31.6133 24.3867C31.4865 24.2653 31.337 24.1701 31.1733 24.1067C30.8487 23.9733 30.4846 23.9733 30.16 24.1067C29.9963 24.1701 29.8468 24.2653 29.72 24.3867L27.0533 27.0533C26.8022 27.3044 26.6612 27.6449 26.6612 28C26.6612 28.3551 26.8022 28.6956 27.0533 28.9467C27.3044 29.1977 27.6449 29.3388 28 29.3388C28.3551 29.3388 28.6956 29.1977 28.9466 28.9467L29.3333 28.5467V35.4533L28.9466 35.0533C28.6956 34.8023 28.3551 34.6612 28 34.6612C27.6449 34.6612 27.3044 34.8023 27.0533 35.0533C26.8022 35.3044 26.6612 35.6449 26.6612 36C26.6612 36.3551 26.8022 36.6956 27.0533 36.9467L29.72 39.6133C29.8468 39.7347 29.9963 39.8299 30.16 39.8933C30.3196 39.9639 30.4922 40.0003 30.6666 40.0003C30.8411 40.0003 31.0137 39.9639 31.1733 39.8933C31.337 39.8299 31.4865 39.7347 31.6133 39.6133L34.28 36.9467C34.4043 36.8223 34.5029 36.6748 34.5702 36.5123C34.6375 36.3499 34.6721 36.1758 34.6721 36C34.6721 35.8242 34.6375 35.6501 34.5702 35.4877C34.5029 35.3252 34.4043 35.1777 34.28 35.0533C34.1557 34.929 34.0081 34.8304 33.8456 34.7631C33.6832 34.6958 33.5091 34.6612 33.3333 34.6612C33.1575 34.6612 32.9834 34.6958 32.821 34.7631C32.6586 34.8304 32.511 34.929 32.3866 35.0533L32 35.4533V28.5467L32.3866 28.9467ZM38.6666 26.6667H52C52.3536 26.6667 52.6927 26.5262 52.9428 26.2761C53.1928 26.0261 53.3333 25.687 53.3333 25.3333C53.3333 24.9797 53.1928 24.6406 52.9428 24.3905C52.6927 24.1405 52.3536 24 52 24H38.6666C38.313 24 37.9739 24.1405 37.7238 24.3905C37.4738 24.6406 37.3333 24.9797 37.3333 25.3333C37.3333 25.687 37.4738 26.0261 37.7238 26.2761C37.9739 26.5262 38.313 26.6667 38.6666 26.6667ZM52 30.6667H38.6666C38.313 30.6667 37.9739 30.8071 37.7238 31.0572C37.4738 31.3072 37.3333 31.6464 37.3333 32C37.3333 32.3536 37.4738 32.6928 37.7238 32.9428C37.9739 33.1929 38.313 33.3333 38.6666 33.3333H52C52.3536 33.3333 52.6927 33.1929 52.9428 32.9428C53.1928 32.6928 53.3333 32.3536 53.3333 32C53.3333 31.6464 53.1928 31.3072 52.9428 31.0572C52.6927 30.8071 52.3536 30.6667 52 30.6667ZM52 37.3333H38.6666C38.313 37.3333 37.9739 37.4738 37.7238 37.7239C37.4738 37.9739 37.3333 38.313 37.3333 38.6667C37.3333 39.0203 37.4738 39.3594 37.7238 39.6095C37.9739 39.8595 38.313 40 38.6666 40H52C52.3536 40 52.6927 39.8595 52.9428 39.6095C53.1928 39.3594 53.3333 39.0203 53.3333 38.6667C53.3333 38.313 53.1928 37.9739 52.9428 37.7239C52.6927 37.4738 52.3536 37.3333 52 37.3333Z" fill="#13A3B9"/>
</g>
<defs>
<filter id="filter0_d_1_227" x="0" y="0" width="80" height="80" filterUnits="userSpaceOnUse" color-interpolation-filters="sRGB">
<feFlood flood-opacity="0" result="BackgroundImageFix"/>
<feColorMatrix in="SourceAlpha" type="matrix" values="0 0 0 0 0 0 0 0 0 0 0 0 0 0 0 0 0 0 127 0" result="hardAlpha"/>
<feOffset dy="8"/>
<feGaussianBlur stdDeviation="10"/>
<feComposite in2="hardAlpha" operator="out"/>
<feColorMatrix type="matrix" values="0 0 0 0 0.314156 0 0 0 0 0.324894 0 0 0 0 0.3375 0 0 0 0.1 0"/>
<feBlend mode="normal" in2="BackgroundImageFix" result="effect1_dropShadow_1_227"/>
<feBlend mode="normal" in="SourceGraphic" in2="effect1_dropShadow_1_227" result="shape"/>
</filter>
</defs>
</svg>
