<svg width="148" height="40" viewBox="0 0 148 40" fill="none" xmlns="http://www.w3.org/2000/svg">
    <path d="M15.0967 23.2929L19.9401 18.5352H31.9716L21.3135 29.2829L15.0967 23.2929Z" fill="#009CB4"/>
    <path d="M0 20.109L6.05106 26.3562L31.9716 0H19.9401L0 20.109Z" fill="#009CB4"/>
    <path d="M9.03408 29.3424L15.1716 35.4399L21.3135 29.2829L15.0967 23.2929L9.03408 29.3424Z" fill="#009CB4"/>
    <path d="M15.1716 35.4399L21.3135 29.2829L31.8217 40H19.7225L15.1716 35.4399Z" fill="#006F80"/>
    <path d="M15.1716 35.4399L20.8941 33.5203L18.9659 31.6355L15.1716 35.4399Z" fill="#006F80"/>
    <path d="M44.9601 28.4545V11H51.8403C53.163 11 54.2899 11.2528 55.2209 11.7585C56.1519 12.2585 56.8615 12.9545 57.3497 13.8466C57.8435 14.733 58.0905 15.7557 58.0905 16.9148C58.0905 18.0739 57.8407 19.0966 57.3411 19.983C56.8416 20.8693 56.1178 21.5597 55.1698 22.054C54.2274 22.5483 53.0864 22.7955 51.7467 22.7955H48.6472V19.8381H51.1506C51.8602 19.8381 52.4449 19.7159 52.9047 19.4716C53.3702 19.2216 53.7165 18.8778 53.9436 18.4403C54.1763 17.9972 54.2927 17.4886 54.2927 16.9148C54.2927 16.3352 54.1763 15.8295 53.9436 15.3977C53.7165 14.9602 53.3702 14.6222 52.9047 14.3835C52.4392 14.1392 51.8489 14.017 51.1336 14.017H48.6472V28.4545H44.9601Z"
          fill="#13A3B9"/>
    <path d="M66.1671 28.7102C64.8217 28.7102 63.6637 28.4375 62.6929 27.892C61.7279 27.3409 60.9842 26.5625 60.4619 25.5568C59.9397 24.5455 59.6786 23.3494 59.6786 21.9688C59.6786 20.6222 59.9397 19.4403 60.4619 18.4233C60.9842 17.4062 61.7194 16.6136 62.6674 16.0455C63.6211 15.4773 64.7394 15.1932 66.0224 15.1932C66.8852 15.1932 67.6885 15.3324 68.4321 15.6108C69.1815 15.8835 69.8343 16.2955 70.3906 16.8466C70.9526 17.3977 71.3897 18.0909 71.702 18.9261C72.0142 19.7557 72.1703 20.7273 72.1703 21.8409V22.8381L63.2634 22.8466L63.2669 20.5881H68.7557C68.7557 20.0653 68.6422 19.6023 68.4151 19.1989C68.188 18.7955 67.873 18.4801 67.4699 18.2528C67.0726 18.0199 66.6099 17.9034 66.082 17.9034C65.5313 17.9034 65.0431 18.0312 64.6173 18.2869C64.1973 18.5369 63.868 18.875 63.6296 19.3011C63.3912 19.7216 63.2691 20.1903 63.2634 20.7074V22.8466C63.2634 23.4943 63.3827 24.054 63.6211 24.5256C63.8652 24.9972 64.2086 25.3608 64.6514 25.6165C65.0942 25.8722 65.6193 26 66.2267 26C66.6298 26 66.9988 25.9432 67.3337 25.8295C67.6686 25.7159 67.9553 25.5455 68.1937 25.3182C68.4321 25.0909 68.6138 24.8125 68.7387 24.483L72.0937 24.7045C71.9234 25.5114 71.5742 26.2159 71.0463 26.8182C70.524 27.4148 69.8485 27.8807 69.0197 28.2159C68.1966 28.5455 67.2457 28.7102 66.1671 28.7102Z"
          fill="#13A3B9"/>
    <path d="M80.4981 28.7102C79.1527 28.7102 77.9947 28.4375 77.0239 27.892C76.0589 27.3409 75.3152 26.5625 74.793 25.5568C74.2707 24.5455 74.0096 23.3494 74.0096 21.9688C74.0096 20.6222 74.2707 19.4403 74.793 18.4233C75.3152 17.4062 76.0504 16.6136 76.9984 16.0455C77.9521 15.4773 79.0704 15.1932 80.3534 15.1932C81.2162 15.1932 82.0195 15.3324 82.7632 15.6108C83.5125 15.8835 84.1653 16.2955 84.7217 16.8466C85.2837 17.3977 85.7208 18.0909 86.033 18.9261C86.3452 19.7557 86.5013 20.7273 86.5013 21.8409V22.8381H77.5945L77.5979 20.5881H83.0867C83.0867 20.0653 82.9732 19.6023 82.7461 19.1989C82.5191 18.7955 82.204 18.4801 81.801 18.2528C81.4036 18.0199 80.9409 17.9034 80.413 17.9034C79.8623 17.9034 79.3741 18.0312 78.9484 18.2869C78.5283 18.5369 78.199 18.875 77.9606 19.3011C77.7222 19.7216 77.6001 20.1903 77.5945 20.7074V22.8466C77.5945 23.4943 77.7137 24.054 77.9521 24.5256C78.1962 24.9972 78.5396 25.3608 78.9824 25.6165C79.4252 25.8722 79.9503 26 80.5577 26C80.9608 26 81.3298 25.9432 81.6647 25.8295C81.9996 25.7159 82.2863 25.5455 82.5247 25.3182C82.7632 25.0909 82.9448 24.8125 83.0697 24.483L86.4247 24.7045C86.2544 25.5114 85.9053 26.2159 85.3773 26.8182C84.8551 27.4148 84.1795 27.8807 83.3507 28.2159C82.5276 28.5455 81.5767 28.7102 80.4981 28.7102Z"
          fill="#13A3B9"/>
    <path d="M94.7781 28.7102C93.4384 28.7102 92.286 28.4261 91.3209 27.858C90.3615 27.2841 89.6236 26.4886 89.107 25.4716C88.5961 24.4545 88.3406 23.2841 88.3406 21.9602C88.3406 20.6193 88.5989 19.4432 89.1155 18.4318C89.6378 17.4148 90.3786 16.6222 91.338 16.054C92.2973 15.4801 93.4384 15.1932 94.761 15.1932C95.9021 15.1932 96.9012 15.4006 97.7584 15.8153C98.6156 16.2301 99.294 16.8125 99.7935 17.5625C100.293 18.3125 100.568 19.1932 100.619 20.2045H97.1964C97.0999 19.5511 96.8444 19.0256 96.43 18.6278C96.0213 18.2244 95.4848 18.0227 94.8207 18.0227C94.2587 18.0227 93.7676 18.1761 93.3475 18.483C92.9331 18.7841 92.6095 19.2244 92.3768 19.804C92.144 20.3835 92.0277 21.0852 92.0277 21.9091C92.0277 22.7443 92.1412 23.4545 92.3683 24.0398C92.601 24.625 92.9274 25.071 93.3475 25.3778C93.7676 25.6847 94.2587 25.8381 94.8207 25.8381C95.2351 25.8381 95.6069 25.7528 95.9361 25.5824C96.2711 25.4119 96.5464 25.1648 96.7621 24.8409C96.9835 24.5114 97.1283 24.1165 97.1964 23.6562H100.619C100.563 24.6562 100.29 25.5369 99.802 26.2983C99.3195 27.054 98.6525 27.6449 97.801 28.071C96.9494 28.4972 95.9418 28.7102 94.7781 28.7102Z"
          fill="#13A3B9"/>
    <path d="M102.05 18.2188V15.3636H113.903V18.2188H109.688V28.4545H106.231V18.2188H102.05Z" fill="#13A3B9"/>
    <path d="M116.102 33.3636V15.3636H119.679V17.5625H119.84C119.999 17.2102 120.229 16.8523 120.53 16.4886C120.837 16.1193 121.234 15.8125 121.722 15.5682C122.216 15.3182 122.829 15.1932 123.561 15.1932C124.515 15.1932 125.395 15.4432 126.201 15.9432C127.007 16.4375 127.652 17.1847 128.134 18.1847C128.617 19.179 128.858 20.4261 128.858 21.9261C128.858 23.3864 128.622 24.6193 128.151 25.625C127.686 26.625 127.05 27.3835 126.244 27.9006C125.443 28.4119 124.546 28.6676 123.553 28.6676C122.849 28.6676 122.25 28.5511 121.756 28.3182C121.268 28.0852 120.868 27.7926 120.556 27.4403C120.243 27.0824 120.005 26.7216 119.84 26.358H119.73V33.3636H116.102ZM119.653 21.9091C119.653 22.6875 119.761 23.3665 119.977 23.946C120.192 24.5256 120.505 24.9773 120.913 25.3011C121.322 25.6193 121.819 25.7784 122.403 25.7784C122.994 25.7784 123.493 25.6165 123.902 25.2926C124.311 24.9631 124.62 24.5085 124.83 23.929C125.046 23.3438 125.154 22.6705 125.154 21.9091C125.154 21.1534 125.049 20.4886 124.839 19.9148C124.629 19.3409 124.319 18.892 123.911 18.5682C123.502 18.2443 122.999 18.0824 122.403 18.0824C121.813 18.0824 121.313 18.2386 120.905 18.5511C120.502 18.8636 120.192 19.3068 119.977 19.8807C119.761 20.4545 119.653 21.1307 119.653 21.9091Z"
          fill="#13A3B9"/>
    <path d="M134.742 19.3864H137.458C139.19 19.3864 140.541 19.8011 141.511 20.6307C142.482 21.4545 142.968 22.5568 142.968 23.9375C142.968 24.8352 142.749 25.625 142.312 26.3068C141.875 26.983 141.245 27.5114 140.422 27.892C139.598 28.267 138.611 28.4545 137.458 28.4545H131.276V15.3636H134.742V25.5994H137.458C138.066 25.5994 138.565 25.446 138.957 25.1392C139.349 24.8324 139.547 24.4403 139.553 23.9631C139.547 23.4574 139.349 23.0455 138.957 22.7273C138.565 22.4034 138.066 22.2415 137.458 22.2415H134.742V19.3864ZM144.373 28.4545V15.3636H148V28.4545H144.373Z"
          fill="#13A3B9"/>
</svg>
