<svg width="48" height="48" viewBox="0 0 48 48" fill="none" xmlns="http://www.w3.org/2000/svg">
<circle cx="24" cy="24" r="24" fill="#F9F9F9"/>
<path d="M34.6266 27.8133L33.8666 22.2666C33.2399 17.6399 29.6666 14.0533 25.32 13.4399V12.0133C25.32 11.28 24.72 10.68 23.9866 10.68C23.2533 10.68 22.6533 11.28 22.6533 12.0133V13.4399C18.3066 14.0666 14.76 17.6399 14.12 22.2666L13.36 27.8133C13.16 29.2533 13.5866 30.6933 14.5333 31.76C15.4266 32.7733 16.6933 33.3599 18.0266 33.3599H19.4266C19.72 35.5866 21.6133 37.32 23.92 37.32C26.2266 37.32 28.12 35.5866 28.4133 33.3599H29.92C31.2533 33.3599 32.52 32.7733 33.4133 31.76C34.36 30.68 34.7866 29.24 34.5866 27.8133H34.6266ZM23.9466 34.6666C23.1066 34.6666 22.4133 34.1199 22.1599 33.3733H25.7333C25.48 34.1199 24.7866 34.6666 23.9466 34.6666ZM31.44 30.0133C31.0533 30.4533 30.52 30.7066 29.9466 30.7066H18.04C17.4666 30.7066 16.9466 30.4667 16.5466 30.0133C16.12 29.52 15.9199 28.84 16.0133 28.1733L16.7733 22.6266C17.28 18.8533 20.3866 16 24 16C27.6133 16 30.7066 18.8533 31.2266 22.6266L31.9866 28.1733C32.08 28.84 31.8799 29.52 31.4533 30.0133H31.44Z" fill="#A7B4CC"/>
</svg>
