<svg width="32" height="32" viewBox="0 0 32 32" fill="none" xmlns="http://www.w3.org/2000/svg">
<path d="M9.36164 14.191L15.0721 19.6212C15.1959 19.7412 15.3431 19.8365 15.5053 19.9015C15.6675 19.9665 15.8415 20 16.0172 20C16.1929 20 16.3669 19.9665 16.5291 19.9015C16.6914 19.8365 16.8386 19.7412 16.9623 19.6212L22.6063 14.191C22.731 14.072 22.83 13.9303 22.8976 13.7742C22.9652 13.6182 23 13.4508 23 13.2817C23 13.1126 22.9652 12.9453 22.8976 12.7892C22.83 12.6331 22.731 12.4915 22.6063 12.3724C22.3569 12.1339 22.0195 12 21.6678 12C21.3162 12 20.9788 12.1339 20.7294 12.3724L16.0172 16.9061L11.3051 12.3724C11.0571 12.1358 10.7225 12.0024 10.3733 12.001C10.1981 12 10.0244 12.0323 9.86226 12.0961C9.70008 12.1598 9.55257 12.2537 9.42819 12.3724C9.29897 12.4872 9.19467 12.6255 9.12132 12.7792C9.04797 12.933 9.00701 13.0993 9.00082 13.2684C8.99464 13.4375 9.02334 13.6061 9.08527 13.7644C9.1472 13.9228 9.24113 14.0678 9.36164 14.191Z" fill="#676A71"/>
</svg>
