<svg width="48" height="48" viewBox="0 0 48 48" fill="none" xmlns="http://www.w3.org/2000/svg">
<circle cx="24" cy="24" r="24" fill="#F9F9F9"/>
<path d="M24 22.6667C27.3066 22.6667 30 19.9734 30 16.6667C30 13.36 27.3066 10.6667 24 10.6667C20.6933 10.6667 18 13.36 18 16.6667C18 19.9734 20.6933 22.6667 24 22.6667ZM24 13.3334C25.84 13.3334 27.3333 14.8267 27.3333 16.6667C27.3333 18.5067 25.84 20 24 20C22.16 20 20.6666 18.5067 20.6666 16.6667C20.6666 14.8267 22.16 13.3334 24 13.3334Z" fill="#A7B4CC"/>
<path d="M28 24H20C17.0533 24 14.6666 26.3867 14.6666 29.3334V30.6667C14.6666 33.6134 17.0533 36 20 36H28C30.9466 36 33.3333 33.6134 33.3333 30.6667V29.3334C33.3333 26.3867 30.9466 24 28 24ZM30.6666 30.6667C30.6666 32.1334 29.4666 33.3334 28 33.3334H20C18.5333 33.3334 17.3333 32.1334 17.3333 30.6667V29.3334C17.3333 27.8667 18.5333 26.6667 20 26.6667H28C29.4666 26.6667 30.6666 27.8667 30.6666 29.3334V30.6667Z" fill="#A7B4CC"/>
</svg>
