<svg width="28" height="16" viewBox="0 0 28 16" fill="none" xmlns="http://www.w3.org/2000/svg">
<path d="M6.38665 4.94667C6.5106 5.07164 6.65807 5.17083 6.82055 5.23852C6.98303 5.30621 7.1573 5.34106 7.33332 5.34106C7.50933 5.34106 7.68361 5.30621 7.84608 5.23852C8.00856 5.17083 8.15603 5.07164 8.27998 4.94667C8.40495 4.82272 8.50415 4.67525 8.57184 4.51277C8.63953 4.35029 8.67438 4.17602 8.67438 4C8.67438 3.82398 8.63953 3.64971 8.57184 3.48723C8.50415 3.32475 8.40495 3.17728 8.27998 3.05333L5.61332 0.386667C5.48651 0.265279 5.33698 0.170126 5.17332 0.106667C4.8487 -0.0266908 4.4846 -0.0266908 4.15998 0.106667C3.99631 0.170126 3.84679 0.265279 3.71998 0.386667L1.05332 3.05333C0.802244 3.3044 0.661194 3.64493 0.661194 4C0.661194 4.35507 0.802244 4.6956 1.05332 4.94667C1.30439 5.19774 1.64491 5.33879 1.99998 5.33879C2.35505 5.33879 2.69558 5.19774 2.94665 4.94667L3.33332 4.54667V11.4533L2.94665 11.0533C2.69558 10.8023 2.35505 10.6612 1.99998 10.6612C1.64491 10.6612 1.30439 10.8023 1.05332 11.0533C0.802244 11.3044 0.661194 11.6449 0.661194 12C0.661194 12.3551 0.802244 12.6956 1.05332 12.9467L3.71998 15.6133C3.84679 15.7347 3.99631 15.8299 4.15998 15.8933C4.31958 15.9639 4.49215 16.0003 4.66665 16.0003C4.84114 16.0003 5.01372 15.9639 5.17332 15.8933C5.33698 15.8299 5.48651 15.7347 5.61332 15.6133L8.27998 12.9467C8.4043 12.8223 8.50291 12.6748 8.5702 12.5123C8.63748 12.3499 8.6721 12.1758 8.6721 12C8.6721 11.8242 8.63748 11.6501 8.5702 11.4877C8.50291 11.3252 8.4043 11.1777 8.27998 11.0533C8.15566 10.929 8.00808 10.8304 7.84565 10.7631C7.68322 10.6958 7.50913 10.6612 7.33332 10.6612C7.1575 10.6612 6.98341 10.6958 6.82098 10.7631C6.65855 10.8304 6.51097 10.929 6.38665 11.0533L5.99998 11.4533V4.54667L6.38665 4.94667ZM12.6666 2.66667H26C26.3536 2.66667 26.6927 2.52619 26.9428 2.27614C27.1928 2.02609 27.3333 1.68696 27.3333 1.33333C27.3333 0.979711 27.1928 0.640573 26.9428 0.390525C26.6927 0.140476 26.3536 0 26 0H12.6666C12.313 0 11.9739 0.140476 11.7238 0.390525C11.4738 0.640573 11.3333 0.979711 11.3333 1.33333C11.3333 1.68696 11.4738 2.02609 11.7238 2.27614C11.9739 2.52619 12.313 2.66667 12.6666 2.66667ZM26 6.66667H12.6666C12.313 6.66667 11.9739 6.80714 11.7238 7.05719C11.4738 7.30724 11.3333 7.64638 11.3333 8C11.3333 8.35362 11.4738 8.69276 11.7238 8.94281C11.9739 9.19286 12.313 9.33333 12.6666 9.33333H26C26.3536 9.33333 26.6927 9.19286 26.9428 8.94281C27.1928 8.69276 27.3333 8.35362 27.3333 8C27.3333 7.64638 27.1928 7.30724 26.9428 7.05719C26.6927 6.80714 26.3536 6.66667 26 6.66667ZM26 13.3333H12.6666C12.313 13.3333 11.9739 13.4738 11.7238 13.7239C11.4738 13.9739 11.3333 14.313 11.3333 14.6667C11.3333 15.0203 11.4738 15.3594 11.7238 15.6095C11.9739 15.8595 12.313 16 12.6666 16H26C26.3536 16 26.6927 15.8595 26.9428 15.6095C27.1928 15.3594 27.3333 15.0203 27.3333 14.6667C27.3333 14.313 27.1928 13.9739 26.9428 13.7239C26.6927 13.4738 26.3536 13.3333 26 13.3333Z" fill="#13A3B9"/>
</svg>
